<svg version="1.1" id="Layer_1" xmlns="http://www.w3.org/2000/svg" xmlns:xlink="http://www.w3.org/1999/xlink" x="0px" y="0px"
	 width="100%" viewBox="0 0 624 512" enable-background="new 0 0 624 512" xml:space="preserve">
<path fill="#000000" opacity="1.000000" stroke="none" 
	d="
M520.505005,408.452942 
	C522.706482,407.674164 524.790466,407.556854 526.272644,405.962250 
	C513.387390,407.144714 502.425751,411.942993 494.780792,422.760406 
	C489.407990,430.362762 485.831177,438.769135 482.926910,447.667908 
	C480.789001,454.218658 481.022583,461.047516 478.963348,467.485443 
	C478.153198,470.018219 479.270050,472.421051 479.258484,474.904694 
	C479.208252,485.733795 479.155914,496.566437 479.397339,507.391266 
	C479.476501,510.941528 478.254211,512.056274 474.831116,512.050659 
	C424.840607,511.968719 374.849945,511.933685 324.859497,512.012451 
	C320.510132,512.019348 319.584991,510.120819 319.609436,506.240784 
	C319.736542,486.078949 319.755463,465.915222 319.614319,445.753601 
	C319.567108,439.011993 318.935120,432.274445 318.512115,424.457062 
	C315.874390,427.264313 316.383179,429.641998 316.473175,431.787537 
	C317.520935,456.770844 316.561737,481.768250 317.079254,506.753052 
	C317.158936,510.599640 315.743988,512.049011 311.834808,512.041687 
	C262.344269,511.948334 212.853439,511.919312 163.363007,512.024719 
	C158.433029,512.035217 157.608292,509.920837 157.875214,505.590851 
	C158.888336,489.156281 158.939636,472.643005 155.676651,456.488281 
	C152.666580,441.585815 147.124298,427.456970 135.357635,416.970123 
	C129.164291,411.450378 122.343910,406.563080 111.682205,407.332855 
	C127.009277,411.528412 137.404648,419.934448 144.168076,432.635406 
	C150.957336,445.384857 154.474319,459.099335 154.962830,473.492554 
	C155.341370,484.645966 155.041229,495.821472 155.340927,506.979156 
	C155.436386,510.533264 154.762054,512.054810 150.801407,512.039673 
	C123.807335,511.936615 96.812469,512.047363 69.817833,512.076355 
	C66.637665,512.079773 63.048115,511.836914 64.228760,507.362396 
	C67.811485,493.784119 67.549492,479.574982 70.971825,466.054016 
	C74.875595,450.631012 77.892845,434.727875 87.619461,421.452637 
	C90.070724,418.107056 93.101006,415.192047 95.686119,411.936981 
	C103.241539,402.423523 110.944687,393.072327 122.063210,387.428314 
	C134.080704,381.327881 146.155060,375.339569 158.194778,369.282806 
	C183.012802,356.797821 208.169113,344.966064 232.131165,330.830383 
	C241.268448,325.440094 249.018265,318.439911 256.025940,310.576538 
	C258.296082,308.029205 259.502777,304.961243 259.326111,301.411926 
	C258.837311,291.592987 258.485474,281.768158 258.940216,271.937561 
	C259.059509,269.358826 258.257202,267.057800 257.398621,264.684540 
	C253.612488,254.219009 248.451370,244.234665 246.347244,233.176620 
	C245.768753,230.136398 243.691528,228.314835 241.072250,226.924561 
	C234.603516,223.491013 229.197464,218.469223 225.516891,212.460449 
	C221.930267,206.605057 220.598511,199.457474 219.933640,192.496719 
	C219.266174,185.508545 219.203171,178.496643 222.633240,171.996277 
	C223.174545,170.970459 223.362061,169.436539 224.193985,168.934708 
	C233.480652,163.333054 229.414764,154.663330 229.232452,147.008240 
	C229.015472,137.897690 228.676971,128.806168 229.169647,119.687202 
	C229.528442,113.045921 229.842865,106.721130 233.703629,100.694038 
	C237.126175,95.351028 240.763779,90.658447 246.394531,87.725555 
	C250.828903,85.415802 253.631866,81.846550 254.623886,77.031731 
	C257.633820,62.422916 267.399261,53.793961 280.224915,47.885498 
	C291.994965,42.463337 304.129181,42.526764 316.795868,44.426525 
	C328.431213,46.171608 340.264709,45.740868 351.155487,39.897202 
	C353.352570,38.718319 355.976440,37.305138 358.156403,39.258743 
	C360.470245,41.332359 359.585541,44.087082 358.294250,46.589802 
	C356.256897,50.538555 359.119232,52.126442 361.953735,52.400379 
	C367.057190,52.893593 371.589111,54.810108 376.265228,56.552567 
	C382.701569,58.950951 388.011810,64.234016 387.327637,72.285530 
	C387.040314,75.666504 388.203125,78.168861 390.681244,80.657410 
	C399.360168,89.372849 404.971741,100.058441 404.996094,112.290955 
	C405.006439,117.487885 405.938965,122.587326 405.697327,127.673256 
	C405.321472,135.583588 406.618103,143.500320 405.385101,151.377167 
	C405.182556,152.671249 405.055847,154.035156 404.539978,155.211502 
	C402.905121,158.939606 403.105560,161.900757 406.463562,164.893341 
	C411.383179,169.277710 412.925385,175.519318 413.248566,181.776154 
	C413.682434,190.175537 413.869141,198.656326 411.220306,206.843307 
	C408.417999,215.504517 402.622772,221.709946 394.885895,226.162659 
	C390.867401,228.475372 387.486755,231.577515 387.779877,236.243393 
	C388.413422,246.326981 383.503357,254.711777 380.653381,263.772247 
	C378.930206,269.250519 378.009521,275.049744 378.813507,280.924408 
	C379.266296,284.232635 378.838715,287.434845 378.331573,290.770447 
	C377.489899,296.306213 378.520111,302.014526 380.731537,307.152618 
	C384.469757,315.838196 391.394836,321.781647 399.344391,326.529083 
	C425.801331,342.328857 453.636322,355.535156 480.836700,369.936798 
	C495.232788,377.559052 510.488647,383.531799 524.157959,392.556244 
	C530.108521,396.484772 534.417908,402.015259 538.607666,407.463531 
	C543.306213,413.573456 548.275879,419.564606 552.030457,426.385345 
	C558.359558,437.882904 562.377625,450.246399 565.182373,462.960175 
	C568.351501,477.325623 570.674377,491.840576 571.559326,506.584137 
	C571.831299,511.116302 570.208496,512.105286 566.286987,512.091003 
	C540.292236,511.996185 514.296814,511.928345 488.302277,512.030029 
	C483.608032,512.048462 481.749329,510.435028 481.832977,505.615814 
	C482.032593,494.122620 481.690186,482.620728 481.828522,471.125519 
	C482.005829,456.391205 486.058929,442.617645 493.510620,429.988983 
	C499.635254,419.609283 508.643616,412.445526 520.505005,408.452942 
M334.294037,115.968544 
	C330.388397,118.738327 325.691040,119.460068 321.236206,120.153648 
	C306.461212,122.454002 292.889435,118.871147 280.870056,110.055779 
	C277.517120,107.596642 275.458099,108.481033 273.360321,111.210701 
	C269.439087,116.313011 266.499603,121.765984 267.170074,128.545593 
	C267.477448,131.653488 267.106354,134.669754 263.935760,136.308228 
	C260.456329,138.106293 259.737732,133.967422 257.393707,132.991226 
	C255.454239,134.278534 255.319153,136.228271 255.247284,138.252197 
	C255.152893,140.911240 255.590729,143.799728 254.704849,146.182480 
	C251.438034,154.969360 251.705200,164.147079 251.308914,173.211639 
	C250.671753,187.786057 252.962509,202.129822 254.769791,216.571503 
	C256.262634,228.500656 262.352997,237.050247 269.831451,245.332016 
	C271.804352,247.516876 273.552368,248.642990 277.030029,247.017563 
	C285.832214,242.903488 295.218964,241.252563 305.081116,241.765244 
	C314.384552,242.248856 323.731750,241.845367 333.058655,241.936920 
	C340.222992,242.007233 347.071259,243.443100 353.870361,245.916199 
	C357.143829,247.106873 360.501404,249.680206 364.960205,245.658234 
	C376.380646,235.356644 380.139343,221.535645 381.212311,207.784851 
	C382.479431,191.545975 382.240997,175.065689 380.525604,158.573044 
	C379.155243,145.397491 372.719360,134.344864 369.699524,122.016556 
	C369.448059,120.989975 368.479065,120.083405 367.705414,119.249046 
	C359.322906,110.208199 345.778931,108.705803 334.294037,115.968544 
M303.155640,361.302643 
	C307.652252,364.953827 313.115906,367.310272 316.901489,371.888336 
	C319.080170,370.584656 321.074127,369.439117 323.021179,368.218842 
	C338.005280,358.827484 352.059143,348.288849 363.870758,334.995911 
	C367.435791,330.983795 371.236694,326.515625 371.541901,321.325409 
	C372.244293,309.382629 371.746857,297.368225 371.688446,285.383179 
	C371.682129,284.085175 371.665009,282.520264 370.031403,282.107117 
	C368.511871,281.722839 367.778687,282.870178 366.881134,283.969940 
	C357.458282,295.515930 346.673004,305.390991 332.842010,311.526031 
	C320.547394,316.979584 308.734070,317.153015 296.988068,309.640991 
	C287.612305,303.644836 280.263855,295.593872 272.731567,287.663605 
	C270.610535,285.430511 268.571442,283.119629 266.090942,280.402008 
	C264.722534,283.348358 265.082916,285.697174 265.064453,287.930634 
	C264.995636,296.253357 265.712860,304.641357 264.904633,312.884216 
	C263.898285,323.147858 268.362000,330.791229 274.470398,338.075134 
	C282.365417,347.489471 293.013641,353.522614 303.155640,361.302643 
M375.368835,372.849976 
	C377.226715,369.361389 379.202271,365.929596 380.917999,362.372467 
	C384.499695,354.946930 388.173889,347.539917 390.541962,339.613861 
	C391.535034,336.290100 390.901215,333.615601 386.948944,332.206238 
	C381.898529,330.405273 377.831543,332.332672 374.791809,335.636749 
	C364.651031,346.659363 353.123108,356.180847 342.321533,366.481445 
	C336.907043,371.644867 336.803131,373.800629 341.454590,379.698700 
	C344.644165,383.743073 347.707367,387.888672 350.769806,392.031342 
	C355.187378,398.007202 358.702484,398.067108 363.012848,391.825531 
	C367.159546,385.820892 370.991882,379.599121 375.368835,372.849976 
M252.600555,340.259155 
	C250.716049,339.792358 248.831543,339.325562 246.929504,338.854431 
	C245.672913,341.391510 246.038406,343.587646 247.061050,345.785034 
	C249.087219,350.138794 251.138000,354.482147 253.090927,358.868805 
	C258.485535,370.986176 264.630615,382.674866 272.809052,393.180817 
	C276.544739,397.979675 280.042480,397.934784 283.551575,393.163574 
	C287.881683,387.276062 292.154236,381.346100 296.435974,375.423126 
	C299.498596,371.186584 298.934174,368.355988 294.490540,365.587219 
	C287.863037,361.457764 281.267700,357.030731 276.138947,351.268799 
	C269.883972,344.241669 263.306152,339.232666 252.600555,340.259155 
M286.624207,267.880951 
	C291.158051,275.728302 296.375427,282.402649 307.019012,279.777008 
	C308.460968,279.421295 309.904541,279.071716 311.349792,278.729736 
	C316.558899,277.497223 321.553741,277.217346 326.881104,279.132874 
	C332.183624,281.039490 337.973633,280.828430 342.030273,276.043945 
	C345.868652,271.516907 349.353607,266.660004 351.982971,261.252625 
	C353.339935,258.462036 351.949066,256.694885 349.651459,256.424469 
	C343.289825,255.675797 337.493134,252.542755 330.744873,253.080765 
	C322.146301,253.766281 313.455414,253.359543 304.805023,253.307465 
	C298.102295,253.267120 292.070923,256.612366 285.432098,256.990173 
	C284.062408,257.068115 282.097198,257.652618 281.508148,259.881653 
	C283.043945,262.258820 284.656250,264.754486 286.624207,267.880951 
M241.689926,211.941849 
	C242.089203,205.850739 241.662216,199.793518 239.928513,193.960510 
	C238.271927,188.386841 239.346863,182.409927 236.839096,176.947891 
	C234.979019,172.896530 233.284805,172.202438 229.998825,175.213806 
	C228.380066,176.697281 227.395004,178.531616 226.993546,180.781952 
	C226.014420,186.270218 226.129501,191.854874 227.492462,197.084412 
	C229.214539,203.691849 230.996109,210.567383 237.119507,215.000473 
	C240.263428,217.276535 241.584518,216.427353 241.689926,211.941849 
M404.916077,203.250702 
	C408.064545,196.341690 407.097504,188.937485 407.534729,181.697952 
	C407.753571,178.074417 406.493469,175.295334 403.239166,173.331528 
	C396.278442,175.923920 396.023071,182.391724 395.442413,188.044937 
	C394.798889,194.310333 395.015656,200.651459 393.456329,206.850327 
	C393.021790,208.577667 393.054291,210.520767 393.309204,212.302414 
	C393.814575,215.834503 395.610413,216.423325 398.333191,213.995148 
	C401.378052,211.279648 402.956726,207.571716 404.916077,203.250702 
M320.545105,389.080750 
	C319.193237,390.929382 319.867828,393.745026 317.331635,395.498627 
	C312.146240,392.346008 313.434570,384.523315 307.788788,381.757721 
	C305.968750,382.538025 305.323242,383.468323 306.236298,385.599335 
	C310.034149,394.463226 315.492188,402.538055 318.643921,411.924011 
	C319.850464,406.794128 321.764801,402.162689 324.314514,397.717865 
	C325.601898,395.473633 326.820465,393.090973 327.383636,390.409973 
	C328.018341,387.388367 327.573059,385.189178 324.574860,383.917969 
	C322.458008,384.769318 321.551788,386.512878 320.545105,389.080750 
z"/>
<path fill="#000000" opacity="1.000000" stroke="none" 
	d="
M320.678314,272.389709 
	C315.476227,273.369995 311.184326,271.618103 307.083435,269.459656 
	C304.243317,267.964813 302.645294,265.519226 303.304535,262.062683 
	C304.011902,258.353790 306.897736,258.764038 309.538788,258.752380 
	C315.181000,258.727509 320.824615,258.660248 326.465302,258.753052 
	C331.005127,258.827728 332.548767,261.571228 330.456879,265.683563 
	C328.495941,269.538422 324.715515,270.885742 320.678314,272.389709 
z"/>
</svg>